<?xml version="1.0" standalone="no"?>
<!DOCTYPE svg PUBLIC "-//W3C//DTD SVG 20010904//EN"
 "http://www.w3.org/TR/2001/REC-SVG-20010904/DTD/svg10.dtd">
<svg version="1.0" xmlns="http://www.w3.org/2000/svg"
 width="80.000000pt" height="80.000000pt" viewBox="0 0 80.000000 80.000000"
 preserveAspectRatio="xMidYMid meet">
<metadata>
Created by potrace 1.11, written by Peter Selinger 2001-2013
</metadata>
<g transform="translate(0.000000,80.000000) scale(0.100000,-0.100000)"
fill="#000000" stroke="none">
<path d="M0 400 l0 -400 400 0 400 0 0 400 0 400 -400 0 -400 0 0 -400z m459
179 c25 -9 31 -16 31 -41 0 -29 2 -30 31 -24 24 4 35 1 55 -19 23 -23 24 -30
24 -155 0 -141 -1 -143 -54 -119 -24 12 -25 16 -28 118 -4 147 -22 133 -26
-19 l-3 -120 -39 0 -40 0 0 195 c0 107 4 195 9 195 4 0 22 -5 40 -11z m-105
-70 c32 -15 36 -32 36 -176 0 -133 -1 -136 -54 -112 -24 12 -25 16 -28 118 -4
149 -22 137 -26 -17 l-3 -123 -37 3 -37 3 -3 152 -3 152 63 4 c35 2 64 4 65 5
1 1 13 -3 27 -9z"/>
</g>
</svg>
